<mxfile host="app.diagrams.net" agent="Mozilla/5.0 (Windows NT 10.0; Win64; x64) AppleWebKit/537.36 (KHTML, like Gecko) Chrome/118.0.0.0 Safari/537.36" version="28.0.7">
  <diagram name="第 1 页" id="FKrM2mCtWPcghuYl6nln">
    <mxGraphModel dx="1021" dy="496" grid="1" gridSize="10" guides="1" tooltips="1" connect="1" arrows="1" fold="1" page="1" pageScale="1" pageWidth="827" pageHeight="1169" math="0" shadow="0">
      <root>
        <mxCell id="0" />
        <mxCell id="1" parent="0" />
        <mxCell id="AG47WaFzWLXYvN8UN-2U-114" value="" style="group" parent="1" vertex="1" connectable="0">
          <mxGeometry x="60" y="100" width="1040" height="140" as="geometry" />
        </mxCell>
        <mxCell id="AG47WaFzWLXYvN8UN-2U-6" value="&lt;b&gt;传统文件传输流程：4次拷贝 + 2次系统调用&lt;/b&gt;" style="text;strokeColor=none;align=center;fillColor=none;html=1;verticalAlign=middle;whiteSpace=wrap;rounded=0;" parent="AG47WaFzWLXYvN8UN-2U-114" vertex="1">
          <mxGeometry width="240" height="20" as="geometry" />
        </mxCell>
        <mxCell id="AG47WaFzWLXYvN8UN-2U-112" value="" style="group" parent="AG47WaFzWLXYvN8UN-2U-114" vertex="1" connectable="0">
          <mxGeometry y="36.25" width="1040" height="103.75" as="geometry" />
        </mxCell>
        <mxCell id="AG47WaFzWLXYvN8UN-2U-78" value="网卡设备" style="strokeWidth=2;html=1;shape=mxgraph.flowchart.delay;whiteSpace=wrap;fillColor=#CCCCFF;shadow=1;" parent="AG47WaFzWLXYvN8UN-2U-112" vertex="1">
          <mxGeometry x="820" y="2.5" width="100" height="60" as="geometry" />
        </mxCell>
        <mxCell id="AG47WaFzWLXYvN8UN-2U-4" value="磁盘数据" style="shape=process;whiteSpace=wrap;html=1;backgroundOutline=1;shadow=1;fillColor=#CCCCCC;" parent="AG47WaFzWLXYvN8UN-2U-112" vertex="1">
          <mxGeometry y="2.5" width="120" height="60" as="geometry" />
        </mxCell>
        <mxCell id="AG47WaFzWLXYvN8UN-2U-5" value="" style="shape=actor;whiteSpace=wrap;html=1;fillColor=#FFE6CC;" parent="AG47WaFzWLXYvN8UN-2U-112" vertex="1">
          <mxGeometry x="1000" y="2.5" width="40" height="60" as="geometry" />
        </mxCell>
        <mxCell id="AG47WaFzWLXYvN8UN-2U-95" style="edgeStyle=orthogonalEdgeStyle;rounded=0;orthogonalLoop=1;jettySize=auto;html=1;exitX=1;exitY=0.5;exitDx=0;exitDy=0;exitPerimeter=0;" parent="AG47WaFzWLXYvN8UN-2U-112" source="AG47WaFzWLXYvN8UN-2U-90" target="AG47WaFzWLXYvN8UN-2U-91" edge="1">
          <mxGeometry relative="1" as="geometry" />
        </mxCell>
        <mxCell id="AG47WaFzWLXYvN8UN-2U-90" value="内核缓冲区" style="shape=tape;whiteSpace=wrap;html=1;strokeWidth=2;size=0.19;shadow=1;fillColor=#CCE5FF;" parent="AG47WaFzWLXYvN8UN-2U-112" vertex="1">
          <mxGeometry x="220" width="100" height="65" as="geometry" />
        </mxCell>
        <mxCell id="AG47WaFzWLXYvN8UN-2U-91" value="用户空间缓冲区" style="shape=tape;whiteSpace=wrap;html=1;strokeWidth=2;size=0.19;shadow=1;fillColor=#CCE5FF;" parent="AG47WaFzWLXYvN8UN-2U-112" vertex="1">
          <mxGeometry x="414" y="1.25" width="107" height="62.5" as="geometry" />
        </mxCell>
        <mxCell id="AG47WaFzWLXYvN8UN-2U-92" value="Socket缓冲区" style="shape=tape;whiteSpace=wrap;html=1;strokeWidth=2;size=0.19;shadow=1;fillColor=#CCE5FF;" parent="AG47WaFzWLXYvN8UN-2U-112" vertex="1">
          <mxGeometry x="620" y="1.25" width="107" height="62.5" as="geometry" />
        </mxCell>
        <mxCell id="AG47WaFzWLXYvN8UN-2U-93" style="edgeStyle=orthogonalEdgeStyle;rounded=0;orthogonalLoop=1;jettySize=auto;html=1;exitX=1;exitY=0.5;exitDx=0;exitDy=0;entryX=0;entryY=0.5;entryDx=0;entryDy=0;entryPerimeter=0;" parent="AG47WaFzWLXYvN8UN-2U-112" source="AG47WaFzWLXYvN8UN-2U-4" target="AG47WaFzWLXYvN8UN-2U-90" edge="1">
          <mxGeometry relative="1" as="geometry" />
        </mxCell>
        <mxCell id="AG47WaFzWLXYvN8UN-2U-94" value="DMA拷贝" style="text;strokeColor=none;align=center;fillColor=none;html=1;verticalAlign=middle;whiteSpace=wrap;rounded=0;" parent="AG47WaFzWLXYvN8UN-2U-112" vertex="1">
          <mxGeometry x="140" y="13.75" width="60" height="20" as="geometry" />
        </mxCell>
        <mxCell id="AG47WaFzWLXYvN8UN-2U-96" value="CPU拷贝" style="text;strokeColor=none;align=center;fillColor=none;html=1;verticalAlign=middle;whiteSpace=wrap;rounded=0;" parent="AG47WaFzWLXYvN8UN-2U-112" vertex="1">
          <mxGeometry x="333" y="13.75" width="60" height="20" as="geometry" />
        </mxCell>
        <mxCell id="AG47WaFzWLXYvN8UN-2U-97" style="edgeStyle=orthogonalEdgeStyle;rounded=0;orthogonalLoop=1;jettySize=auto;html=1;entryX=0;entryY=0.5;entryDx=0;entryDy=0;entryPerimeter=0;" parent="AG47WaFzWLXYvN8UN-2U-112" source="AG47WaFzWLXYvN8UN-2U-91" target="AG47WaFzWLXYvN8UN-2U-92" edge="1">
          <mxGeometry relative="1" as="geometry" />
        </mxCell>
        <mxCell id="AG47WaFzWLXYvN8UN-2U-98" value="CPU处理" style="text;strokeColor=none;align=center;fillColor=none;html=1;verticalAlign=middle;whiteSpace=wrap;rounded=0;" parent="AG47WaFzWLXYvN8UN-2U-112" vertex="1">
          <mxGeometry x="540" y="13.75" width="59" height="20" as="geometry" />
        </mxCell>
        <mxCell id="AG47WaFzWLXYvN8UN-2U-99" style="edgeStyle=orthogonalEdgeStyle;rounded=0;orthogonalLoop=1;jettySize=auto;html=1;entryX=0;entryY=0.5;entryDx=0;entryDy=0;entryPerimeter=0;" parent="AG47WaFzWLXYvN8UN-2U-112" source="AG47WaFzWLXYvN8UN-2U-92" target="AG47WaFzWLXYvN8UN-2U-78" edge="1">
          <mxGeometry relative="1" as="geometry" />
        </mxCell>
        <mxCell id="AG47WaFzWLXYvN8UN-2U-100" value="DMA拷贝" style="text;strokeColor=none;align=center;fillColor=none;html=1;verticalAlign=middle;whiteSpace=wrap;rounded=0;" parent="AG47WaFzWLXYvN8UN-2U-112" vertex="1">
          <mxGeometry x="740" y="13.75" width="59" height="20" as="geometry" />
        </mxCell>
        <mxCell id="AG47WaFzWLXYvN8UN-2U-101" style="edgeStyle=orthogonalEdgeStyle;rounded=0;orthogonalLoop=1;jettySize=auto;html=1;entryX=0.1;entryY=0.5;entryDx=0;entryDy=0;entryPerimeter=0;" parent="AG47WaFzWLXYvN8UN-2U-112" source="AG47WaFzWLXYvN8UN-2U-78" target="AG47WaFzWLXYvN8UN-2U-5" edge="1">
          <mxGeometry relative="1" as="geometry" />
        </mxCell>
        <mxCell id="AG47WaFzWLXYvN8UN-2U-102" value="关键问题：2次不必要的CPU拷贝（内核↔用户空间）和上下文切换" style="text;strokeColor=none;align=center;fillColor=none;html=1;verticalAlign=middle;whiteSpace=wrap;rounded=0;" parent="AG47WaFzWLXYvN8UN-2U-112" vertex="1">
          <mxGeometry y="83.75" width="370" height="20" as="geometry" />
        </mxCell>
        <mxCell id="AG47WaFzWLXYvN8UN-2U-104" value="消费者" style="text;strokeColor=none;align=center;fillColor=none;html=1;verticalAlign=middle;whiteSpace=wrap;rounded=0;" parent="AG47WaFzWLXYvN8UN-2U-112" vertex="1">
          <mxGeometry x="1000" y="62.5" width="40" height="20" as="geometry" />
        </mxCell>
        <mxCell id="AG47WaFzWLXYvN8UN-2U-115" value="" style="group" parent="1" vertex="1" connectable="0">
          <mxGeometry x="60" y="310" width="660" height="122.5" as="geometry" />
        </mxCell>
        <mxCell id="AG47WaFzWLXYvN8UN-2U-53" value="&lt;b&gt;Kafka零拷贝流程：2次DMA拷贝 + 1次系统调用&lt;/b&gt;" style="text;strokeColor=none;align=center;fillColor=none;html=1;verticalAlign=middle;whiteSpace=wrap;rounded=0;" parent="AG47WaFzWLXYvN8UN-2U-115" vertex="1">
          <mxGeometry width="260" height="25" as="geometry" />
        </mxCell>
        <mxCell id="AG47WaFzWLXYvN8UN-2U-113" value="" style="group" parent="AG47WaFzWLXYvN8UN-2U-115" vertex="1" connectable="0">
          <mxGeometry y="37.5" width="660" height="85" as="geometry" />
        </mxCell>
        <mxCell id="AG47WaFzWLXYvN8UN-2U-38" value="PageCache" style="shape=tape;whiteSpace=wrap;html=1;strokeWidth=2;size=0.19;shadow=1;fillColor=#CCE5FF;" parent="AG47WaFzWLXYvN8UN-2U-113" vertex="1">
          <mxGeometry x="220" width="100" height="65" as="geometry" />
        </mxCell>
        <mxCell id="AG47WaFzWLXYvN8UN-2U-39" value="磁盘数据" style="shape=process;whiteSpace=wrap;html=1;backgroundOutline=1;shadow=1;fillColor=#CCCCCC;" parent="AG47WaFzWLXYvN8UN-2U-113" vertex="1">
          <mxGeometry y="2.5" width="120" height="60" as="geometry" />
        </mxCell>
        <mxCell id="AG47WaFzWLXYvN8UN-2U-40" value="" style="shape=actor;whiteSpace=wrap;html=1;fillColor=#FFE6CC;" parent="AG47WaFzWLXYvN8UN-2U-113" vertex="1">
          <mxGeometry x="620" y="2.5" width="40" height="60" as="geometry" />
        </mxCell>
        <mxCell id="AG47WaFzWLXYvN8UN-2U-66" value="网卡缓冲区" style="strokeWidth=2;html=1;shape=mxgraph.flowchart.delay;whiteSpace=wrap;fillColor=#CCCCFF;shadow=1;" parent="AG47WaFzWLXYvN8UN-2U-113" vertex="1">
          <mxGeometry x="440" y="2.5" width="100" height="60" as="geometry" />
        </mxCell>
        <mxCell id="AG47WaFzWLXYvN8UN-2U-103" value="消费者" style="text;strokeColor=none;align=center;fillColor=none;html=1;verticalAlign=middle;whiteSpace=wrap;rounded=0;" parent="AG47WaFzWLXYvN8UN-2U-113" vertex="1">
          <mxGeometry x="620" y="65" width="40" height="20" as="geometry" />
        </mxCell>
        <mxCell id="AG47WaFzWLXYvN8UN-2U-105" style="edgeStyle=orthogonalEdgeStyle;rounded=0;orthogonalLoop=1;jettySize=auto;html=1;exitX=1;exitY=0.5;exitDx=0;exitDy=0;entryX=0;entryY=0.5;entryDx=0;entryDy=0;entryPerimeter=0;" parent="AG47WaFzWLXYvN8UN-2U-113" source="AG47WaFzWLXYvN8UN-2U-39" target="AG47WaFzWLXYvN8UN-2U-38" edge="1">
          <mxGeometry relative="1" as="geometry" />
        </mxCell>
        <mxCell id="AG47WaFzWLXYvN8UN-2U-107" style="edgeStyle=orthogonalEdgeStyle;rounded=0;orthogonalLoop=1;jettySize=auto;html=1;entryX=0.1;entryY=0.5;entryDx=0;entryDy=0;entryPerimeter=0;" parent="AG47WaFzWLXYvN8UN-2U-113" source="AG47WaFzWLXYvN8UN-2U-66" target="AG47WaFzWLXYvN8UN-2U-40" edge="1">
          <mxGeometry relative="1" as="geometry" />
        </mxCell>
        <mxCell id="AG47WaFzWLXYvN8UN-2U-108" value="DMA拷贝" style="text;strokeColor=none;align=center;fillColor=none;html=1;verticalAlign=middle;whiteSpace=wrap;rounded=0;" parent="AG47WaFzWLXYvN8UN-2U-113" vertex="1">
          <mxGeometry x="140" y="12.5" width="60" height="21" as="geometry" />
        </mxCell>
        <mxCell id="AG47WaFzWLXYvN8UN-2U-109" value="sendfile系统调用" style="text;strokeColor=none;align=center;fillColor=none;html=1;verticalAlign=middle;whiteSpace=wrap;rounded=0;" parent="AG47WaFzWLXYvN8UN-2U-113" vertex="1">
          <mxGeometry x="333" y="12.5" width="100" height="20" as="geometry" />
        </mxCell>
        <mxCell id="AG47WaFzWLXYvN8UN-2U-110" style="edgeStyle=orthogonalEdgeStyle;rounded=0;orthogonalLoop=1;jettySize=auto;html=1;entryX=0;entryY=0.5;entryDx=0;entryDy=0;entryPerimeter=0;" parent="AG47WaFzWLXYvN8UN-2U-113" source="AG47WaFzWLXYvN8UN-2U-38" target="AG47WaFzWLXYvN8UN-2U-66" edge="1">
          <mxGeometry relative="1" as="geometry" />
        </mxCell>
        <mxCell id="AG47WaFzWLXYvN8UN-2U-111" value="DMA传输" style="text;strokeColor=none;align=center;fillColor=none;html=1;verticalAlign=middle;whiteSpace=wrap;rounded=0;" parent="AG47WaFzWLXYvN8UN-2U-113" vertex="1">
          <mxGeometry x="550" y="12.5" width="60" height="20" as="geometry" />
        </mxCell>
        <mxCell id="AG47WaFzWLXYvN8UN-2U-126" value="" style="group" parent="1" vertex="1" connectable="0">
          <mxGeometry x="60" y="560" width="560" height="130" as="geometry" />
        </mxCell>
        <mxCell id="AG47WaFzWLXYvN8UN-2U-124" value="" style="group" parent="AG47WaFzWLXYvN8UN-2U-126" vertex="1" connectable="0">
          <mxGeometry width="560" height="102.5" as="geometry" />
        </mxCell>
        <mxCell id="AG47WaFzWLXYvN8UN-2U-116" value="CommitLog" style="strokeWidth=2;html=1;shape=mxgraph.flowchart.multi-document;whiteSpace=wrap;fillColor=#FFFFCC;" parent="AG47WaFzWLXYvN8UN-2U-124" vertex="1">
          <mxGeometry y="40" width="120" height="60" as="geometry" />
        </mxCell>
        <mxCell id="AG47WaFzWLXYvN8UN-2U-120" style="edgeStyle=orthogonalEdgeStyle;rounded=0;orthogonalLoop=1;jettySize=auto;html=1;exitX=1;exitY=0.5;exitDx=0;exitDy=0;exitPerimeter=0;entryX=0;entryY=0.5;entryDx=0;entryDy=0;" parent="AG47WaFzWLXYvN8UN-2U-124" source="AG47WaFzWLXYvN8UN-2U-117" target="AG47WaFzWLXYvN8UN-2U-118" edge="1">
          <mxGeometry relative="1" as="geometry" />
        </mxCell>
        <mxCell id="AG47WaFzWLXYvN8UN-2U-117" value="PageCache" style="shape=tape;whiteSpace=wrap;html=1;strokeWidth=2;size=0.19;shadow=1;fillColor=#CCE5FF;" parent="AG47WaFzWLXYvN8UN-2U-124" vertex="1">
          <mxGeometry x="210" y="37.5" width="100" height="65" as="geometry" />
        </mxCell>
        <mxCell id="AG47WaFzWLXYvN8UN-2U-118" value="磁盘" style="shape=process;whiteSpace=wrap;html=1;backgroundOutline=1;shadow=1;fillColor=#CCCCCC;" parent="AG47WaFzWLXYvN8UN-2U-124" vertex="1">
          <mxGeometry x="440" y="40" width="120" height="60" as="geometry" />
        </mxCell>
        <mxCell id="AG47WaFzWLXYvN8UN-2U-119" style="edgeStyle=orthogonalEdgeStyle;rounded=0;orthogonalLoop=1;jettySize=auto;html=1;entryX=0;entryY=0.5;entryDx=0;entryDy=0;entryPerimeter=0;" parent="AG47WaFzWLXYvN8UN-2U-124" source="AG47WaFzWLXYvN8UN-2U-116" target="AG47WaFzWLXYvN8UN-2U-117" edge="1">
          <mxGeometry relative="1" as="geometry" />
        </mxCell>
        <mxCell id="AG47WaFzWLXYvN8UN-2U-121" value="顺序写入" style="text;strokeColor=none;align=center;fillColor=none;html=1;verticalAlign=middle;whiteSpace=wrap;rounded=0;" parent="AG47WaFzWLXYvN8UN-2U-124" vertex="1">
          <mxGeometry x="140" y="50" width="50" height="20" as="geometry" />
        </mxCell>
        <mxCell id="AG47WaFzWLXYvN8UN-2U-122" value="fsync异步刷盘" style="text;strokeColor=none;align=center;fillColor=none;html=1;verticalAlign=middle;whiteSpace=wrap;rounded=0;" parent="AG47WaFzWLXYvN8UN-2U-124" vertex="1">
          <mxGeometry x="333.5" y="50" width="80" height="20" as="geometry" />
        </mxCell>
        <mxCell id="AG47WaFzWLXYvN8UN-2U-123" value="&lt;b&gt;阶段1：Broker准备数据&lt;/b&gt;" style="text;strokeColor=none;align=center;fillColor=none;html=1;verticalAlign=middle;whiteSpace=wrap;rounded=0;" parent="AG47WaFzWLXYvN8UN-2U-124" vertex="1">
          <mxGeometry width="140" height="20" as="geometry" />
        </mxCell>
        <mxCell id="AG47WaFzWLXYvN8UN-2U-125" value="写入优化：消息先写入PageCache，由Linux后台线程定期刷盘" style="text;strokeColor=none;align=center;fillColor=none;html=1;verticalAlign=middle;whiteSpace=wrap;rounded=0;" parent="AG47WaFzWLXYvN8UN-2U-126" vertex="1">
          <mxGeometry y="110" width="340" height="20" as="geometry" />
        </mxCell>
        <mxCell id="AG47WaFzWLXYvN8UN-2U-151" value="" style="group" parent="1" vertex="1" connectable="0">
          <mxGeometry x="60" y="760" width="860" height="147.5" as="geometry" />
        </mxCell>
        <mxCell id="AG47WaFzWLXYvN8UN-2U-148" value="Consumer" style="text;strokeColor=none;align=center;fillColor=none;html=1;verticalAlign=middle;whiteSpace=wrap;rounded=0;" parent="AG47WaFzWLXYvN8UN-2U-151" vertex="1">
          <mxGeometry y="127.5" width="60" height="20" as="geometry" />
        </mxCell>
        <mxCell id="AG47WaFzWLXYvN8UN-2U-147" style="edgeStyle=orthogonalEdgeStyle;rounded=0;orthogonalLoop=1;jettySize=auto;html=1;" parent="AG47WaFzWLXYvN8UN-2U-151" source="AG47WaFzWLXYvN8UN-2U-127" edge="1">
          <mxGeometry relative="1" as="geometry">
            <mxPoint x="140" y="94.65999999999997" as="targetPoint" />
            <mxPoint x="60" y="94.65999999999997" as="sourcePoint" />
          </mxGeometry>
        </mxCell>
        <mxCell id="AG47WaFzWLXYvN8UN-2U-127" value="" style="shape=actor;whiteSpace=wrap;html=1;fillColor=#FFE6CC;shadow=0;" parent="AG47WaFzWLXYvN8UN-2U-151" vertex="1">
          <mxGeometry x="10" y="65" width="40" height="60" as="geometry" />
        </mxCell>
        <mxCell id="AG47WaFzWLXYvN8UN-2U-136" style="edgeStyle=orthogonalEdgeStyle;rounded=0;orthogonalLoop=1;jettySize=auto;html=1;entryX=0;entryY=0.5;entryDx=0;entryDy=0;" parent="AG47WaFzWLXYvN8UN-2U-151" source="AG47WaFzWLXYvN8UN-2U-128" target="AG47WaFzWLXYvN8UN-2U-129" edge="1">
          <mxGeometry relative="1" as="geometry" />
        </mxCell>
        <mxCell id="AG47WaFzWLXYvN8UN-2U-128" value="Broker" style="verticalLabelPosition=bottom;verticalAlign=top;html=1;shape=mxgraph.basic.layered_rect;dx=10;outlineConnect=0;whiteSpace=wrap;fillColor=#CCFFFF;shadow=1;" parent="AG47WaFzWLXYvN8UN-2U-151" vertex="1">
          <mxGeometry x="140" y="70" width="90" height="50" as="geometry" />
        </mxCell>
        <mxCell id="AG47WaFzWLXYvN8UN-2U-129" value="Linux" style="rounded=1;whiteSpace=wrap;html=1;fillColor=#B3B3B3;shadow=1;" parent="AG47WaFzWLXYvN8UN-2U-151" vertex="1">
          <mxGeometry x="400" y="70" width="80" height="50" as="geometry" />
        </mxCell>
        <mxCell id="AG47WaFzWLXYvN8UN-2U-130" value="PageCache" style="shape=tape;whiteSpace=wrap;html=1;strokeWidth=2;size=0.19;shadow=1;fillColor=#CCE5FF;" parent="AG47WaFzWLXYvN8UN-2U-151" vertex="1">
          <mxGeometry x="570" y="62.5" width="100" height="65" as="geometry" />
        </mxCell>
        <mxCell id="AG47WaFzWLXYvN8UN-2U-133" value="poll()请求" style="text;strokeColor=none;align=center;fillColor=none;html=1;verticalAlign=middle;whiteSpace=wrap;rounded=0;" parent="AG47WaFzWLXYvN8UN-2U-151" vertex="1">
          <mxGeometry x="60" y="70" width="60" height="20" as="geometry" />
        </mxCell>
        <mxCell id="AG47WaFzWLXYvN8UN-2U-137" value="sendfile(file_fd, socket_fd)" style="text;strokeColor=none;align=center;fillColor=none;html=1;verticalAlign=middle;whiteSpace=wrap;rounded=0;" parent="AG47WaFzWLXYvN8UN-2U-151" vertex="1">
          <mxGeometry x="238.5" y="70" width="145" height="20" as="geometry" />
        </mxCell>
        <mxCell id="AG47WaFzWLXYvN8UN-2U-138" style="edgeStyle=orthogonalEdgeStyle;rounded=0;orthogonalLoop=1;jettySize=auto;html=1;entryX=0;entryY=0.5;entryDx=0;entryDy=0;entryPerimeter=0;" parent="AG47WaFzWLXYvN8UN-2U-151" source="AG47WaFzWLXYvN8UN-2U-129" target="AG47WaFzWLXYvN8UN-2U-130" edge="1">
          <mxGeometry relative="1" as="geometry" />
        </mxCell>
        <mxCell id="AG47WaFzWLXYvN8UN-2U-139" value="直接读取" style="text;strokeColor=none;align=center;fillColor=none;html=1;verticalAlign=middle;whiteSpace=wrap;rounded=0;" parent="AG47WaFzWLXYvN8UN-2U-151" vertex="1">
          <mxGeometry x="500" y="70" width="60" height="20" as="geometry" />
        </mxCell>
        <mxCell id="AG47WaFzWLXYvN8UN-2U-143" style="edgeStyle=orthogonalEdgeStyle;rounded=0;orthogonalLoop=1;jettySize=auto;html=1;entryX=0.5;entryY=0;entryDx=0;entryDy=0;" parent="AG47WaFzWLXYvN8UN-2U-151" source="AG47WaFzWLXYvN8UN-2U-140" target="AG47WaFzWLXYvN8UN-2U-127" edge="1">
          <mxGeometry relative="1" as="geometry">
            <Array as="points">
              <mxPoint x="810" y="40" />
              <mxPoint x="30" y="40" />
            </Array>
          </mxGeometry>
        </mxCell>
        <mxCell id="AG47WaFzWLXYvN8UN-2U-140" value="NIC网卡" style="strokeWidth=2;html=1;shape=mxgraph.flowchart.delay;whiteSpace=wrap;fillColor=#CCCCFF;shadow=1;" parent="AG47WaFzWLXYvN8UN-2U-151" vertex="1">
          <mxGeometry x="760" y="65" width="100" height="60" as="geometry" />
        </mxCell>
        <mxCell id="AG47WaFzWLXYvN8UN-2U-142" value="DMA传输" style="text;strokeColor=none;align=center;fillColor=none;html=1;verticalAlign=middle;whiteSpace=wrap;rounded=0;" parent="AG47WaFzWLXYvN8UN-2U-151" vertex="1">
          <mxGeometry x="680" y="70" width="60" height="20" as="geometry" />
        </mxCell>
        <mxCell id="AG47WaFzWLXYvN8UN-2U-145" style="edgeStyle=orthogonalEdgeStyle;rounded=0;orthogonalLoop=1;jettySize=auto;html=1;exitX=1;exitY=0.5;exitDx=0;exitDy=0;exitPerimeter=0;entryX=0;entryY=0.5;entryDx=0;entryDy=0;entryPerimeter=0;" parent="AG47WaFzWLXYvN8UN-2U-151" source="AG47WaFzWLXYvN8UN-2U-130" target="AG47WaFzWLXYvN8UN-2U-140" edge="1">
          <mxGeometry relative="1" as="geometry" />
        </mxCell>
        <mxCell id="AG47WaFzWLXYvN8UN-2U-146" value="网络数据流" style="text;strokeColor=none;align=center;fillColor=none;html=1;verticalAlign=middle;whiteSpace=wrap;rounded=0;" parent="AG47WaFzWLXYvN8UN-2U-151" vertex="1">
          <mxGeometry x="400" y="20" width="70" height="20" as="geometry" />
        </mxCell>
        <mxCell id="AG47WaFzWLXYvN8UN-2U-149" value="&lt;b&gt;阶段2：消费者拉取数据&lt;/b&gt;" style="text;strokeColor=none;align=center;fillColor=none;html=1;verticalAlign=middle;whiteSpace=wrap;rounded=0;" parent="AG47WaFzWLXYvN8UN-2U-151" vertex="1">
          <mxGeometry width="130" height="20" as="geometry" />
        </mxCell>
      </root>
    </mxGraphModel>
  </diagram>
</mxfile>
